<svg width="24" height="26" viewBox="0 0 24 26" fill="none" xmlns="http://www.w3.org/2000/svg">
<path d="M19.416 2.40918L24 8.71777V16.5156L19.416 22.8242L12 25.2344L4.58398 22.8242L0 16.5156V8.71777L4.58398 2.40918L12 0L19.416 2.40918ZM11.2227 9.46289C10.7112 9.46295 10.2696 9.58632 9.89941 9.83301C9.53124 10.0779 9.24693 10.4356 9.04785 10.9053C8.85076 11.3752 8.75195 11.9443 8.75195 12.6113C8.74998 13.2803 8.84782 13.8532 9.04492 14.3291C9.24401 14.8047 9.52829 15.1681 9.89648 15.4189C10.2667 15.6697 10.7092 15.7958 11.2227 15.7979C11.7361 15.7978 12.1777 15.6726 12.5459 15.4219C12.914 15.1711 13.1965 14.8076 13.3936 14.332C13.5927 13.8562 13.6924 13.2823 13.6924 12.6113C13.6944 11.9442 13.5956 11.3762 13.3965 10.9082C13.1974 10.4386 12.9131 10.0798 12.543 9.83301C12.1747 9.58624 11.7342 9.46296 11.2227 9.46289ZM17.0137 9.46289C16.5022 9.46295 16.0607 9.58631 15.6904 9.83301C15.3223 10.0779 15.0379 10.4356 14.8389 10.9053C14.6418 11.3752 14.543 11.9443 14.543 12.6113C14.541 13.2803 14.6388 13.8532 14.8359 14.3291C15.035 14.8048 15.3193 15.1681 15.6875 15.4189C16.0577 15.6697 16.5002 15.7958 17.0137 15.7979C17.5272 15.7978 17.9687 15.6726 18.3369 15.4219C18.705 15.1711 18.9875 14.8076 19.1846 14.332C19.3837 13.8562 19.4834 13.2823 19.4834 12.6113C19.4854 11.9442 19.3866 11.3762 19.1875 10.9082C18.9884 10.4386 18.7042 10.0798 18.334 9.83301C17.9657 9.58623 17.5252 9.46295 17.0137 9.46289ZM6.1543 9.54688L4.63965 10.5049V11.6523L6.04102 10.7744H6.07617V15.6641H7.37012V9.54688H6.1543ZM11.2227 10.5234C11.4554 10.5235 11.658 10.6007 11.8291 10.7559C12.0023 10.9111 12.1349 11.1436 12.2285 11.4521C12.3241 11.7608 12.3721 12.1473 12.3721 12.6113C12.374 13.3162 12.2706 13.8448 12.0615 14.1973C11.8525 14.5494 11.5729 14.7255 11.2227 14.7256C10.9899 14.7255 10.7864 14.6482 10.6133 14.4932C10.4401 14.3359 10.3055 14.1006 10.21 13.7881C10.1164 13.4735 10.0693 13.0812 10.0693 12.6113C10.0713 11.9165 10.1767 11.3944 10.3857 11.0459C10.5948 10.6975 10.8743 10.5236 11.2227 10.5234ZM17.0137 10.5234C17.2464 10.5235 17.449 10.6007 17.6201 10.7559C17.7933 10.9111 17.926 11.1436 18.0195 11.4521C18.1151 11.7608 18.1631 12.1473 18.1631 12.6113C18.1651 13.3162 18.0616 13.8448 17.8525 14.1973C17.6435 14.5495 17.3639 14.7255 17.0137 14.7256C16.781 14.7255 16.5774 14.6482 16.4043 14.4932C16.2311 14.3359 16.0965 14.1006 16.001 13.7881C15.9074 13.4735 15.8604 13.0812 15.8604 12.6113C15.8623 11.9165 15.9678 11.3944 16.1768 11.0459C16.3858 10.6975 16.6654 10.5236 17.0137 10.5234Z" fill="white"/>
</svg>
